<?xml version="1.0" encoding="utf-8"?>
<svg viewBox="0 0 1616 888" width="1616" height="888" xmlns="http://www.w3.org/2000/svg">
  <rect x="79.298" y="199.388" width="506.358" height="544.27" style="stroke-width: 1.712; stroke: rgba(0, 0, 0, 0); fill: rgba(255, 255, 255, 0.424);" transform="matrix(0.9999989867210387, 0.00101500004529953, 0, 1.0000009536743164, 0.7022349343036467, -24.253172282176763)"/>
  <g transform="matrix(0.609875023365, 0, 0, 0.609875023365, -1843.620605639948, -740.689153977249)" style="transform-origin: 2174px 1159px;">
    <rect x="1809.953" y="857.255" width="107" height="294" fill="#E97132"/>
    <rect x="1987.953" y="857.255" width="106" height="294" fill="#E97132"/>
    <rect x="1898.953" y="962.255" width="107" height="189" fill="#E97132"/>
    <rect x="1987.953" y="1176" width="106" height="293" fill="#E97132"/>
    <rect x="1809.953" y="1176" width="107" height="293" fill="#E97132"/>
    <rect x="1898.953" y="1176" width="107" height="189" fill="#E97132"/>
    <rect x="2295.698" y="1176" width="106" height="293" fill="#E97132"/>
    <rect x="2118.698" y="1176" width="106" height="293" fill="#E97132"/>
    <rect x="2206.698" y="1176" width="107" height="189" fill="#E97132"/>
    <rect x="2425.44" y="1176" width="106" height="293" fill="#E97132"/>
  </g>
  <path style="fill: rgb(51, 51, 51); stroke-width: 1.052;" transform="matrix(0.9999999999999999, 0, 0, 0.9999999999999999, 0, 0)"/>
  <path style="fill: rgb(51, 51, 51); stroke-width: 1.052;" transform="matrix(0.9999999999999999, 0, 0, 0.9999999999999999, 0, 0)"/>
  <path d="M 115.358 681.128 L 109.386 661.758 L 113.362 661.758 L 116.796 675.584 L 121.63 661.758 L 124.279 661.758 L 129.113 675.584 L 132.546 661.758 L 136.52 661.758 L 130.549 681.128 L 127.675 681.128 L 122.955 667.747 L 118.233 681.128 L 115.358 681.128 Z M 162.751 681.409 C 160.214 681.409 158.247 680.67 156.852 679.197 C 155.46 677.723 154.765 675.647 154.765 672.972 L 154.765 669.819 C 154.765 667.17 155.46 665.117 156.852 663.663 C 158.247 662.205 160.214 661.478 162.751 661.478 C 165.29 661.478 167.254 662.205 168.648 663.663 C 170.042 665.117 170.739 667.17 170.739 669.819 L 170.739 673.03 C 170.739 675.692 170.042 677.754 168.648 679.216 C 167.254 680.677 165.29 681.409 162.751 681.409 Z M 162.751 677.789 C 164.082 677.789 165.113 677.371 165.839 676.539 C 166.567 675.703 166.932 674.534 166.932 673.03 L 166.932 669.819 C 166.932 668.315 166.567 667.152 165.839 666.33 C 165.113 665.509 164.082 665.097 162.751 665.097 C 161.432 665.097 160.407 665.509 159.673 666.33 C 158.94 667.152 158.571 668.315 158.571 669.819 L 158.571 673.03 C 158.571 674.534 158.94 675.703 159.673 676.539 C 160.407 677.371 161.432 677.789 162.751 677.789 Z M 191.221 681.128 L 191.221 661.758 L 195.028 661.758 L 195.028 681.128 L 191.221 681.128 Z M 201.877 666.347 C 201.539 665.938 201.117 665.626 200.607 665.416 C 200.097 665.203 199.506 665.097 198.833 665.097 C 197.628 665.097 196.692 665.43 196.026 666.098 C 195.36 666.761 195.028 667.684 195.028 668.868 L 194.636 665.137 C 195.22 663.99 195.986 663.095 196.94 662.447 C 197.893 661.799 198.939 661.478 200.084 661.478 C 200.968 661.478 201.767 661.604 202.482 661.861 C 203.198 662.116 203.824 662.492 204.359 662.99 L 201.877 666.347 Z M 224.005 678.293 L 224.246 673.776 L 234.213 661.758 L 238.69 661.758 L 224.005 678.293 Z M 222.605 681.128 L 222.605 653.994 L 226.411 653.994 L 226.411 681.128 L 222.605 681.128 Z M 235.5 681.128 L 228.744 669.95 L 231.189 667.413 L 239.642 681.128 L 235.5 681.128 Z M 264.739 681.409 C 263.024 681.409 261.465 681.154 260.064 680.652 C 258.665 680.147 257.412 679.393 256.305 678.385 L 258.563 675.605 C 259.621 676.401 260.662 676.998 261.689 677.395 C 262.717 677.795 263.732 677.993 264.739 677.993 C 266.244 677.993 267.374 677.76 268.127 677.293 C 268.879 676.826 269.256 676.127 269.256 675.195 C 269.256 674.472 269.004 673.963 268.501 673.665 C 267.997 673.364 267.337 673.169 266.522 673.075 C 265.708 672.983 264.832 672.905 263.901 672.842 C 263.115 672.779 262.338 672.682 261.568 672.554 C 260.796 672.42 260.093 672.187 259.458 671.845 C 258.825 671.501 258.317 670.993 257.936 670.322 C 257.557 669.651 257.367 668.749 257.367 667.616 C 257.367 665.563 257.996 664.028 259.254 663.009 C 260.51 661.987 262.382 661.478 264.87 661.478 C 266.389 661.478 267.799 661.683 269.106 662.093 C 270.414 662.503 271.638 663.131 272.783 663.979 L 270.487 666.759 C 269.517 666.137 268.563 665.67 267.622 665.358 C 266.683 665.046 265.765 664.893 264.87 664.893 C 263.576 664.893 262.607 665.114 261.959 665.556 C 261.311 665.997 260.988 666.659 260.988 667.543 C 260.988 668.126 261.213 668.547 261.66 668.803 C 262.108 669.057 262.7 669.221 263.434 669.296 C 264.168 669.371 264.958 669.44 265.804 669.502 C 266.611 669.551 267.43 669.642 268.258 669.773 C 269.084 669.903 269.846 670.155 270.543 670.53 C 271.241 670.902 271.799 671.455 272.223 672.188 C 272.645 672.922 272.857 673.925 272.857 675.195 C 272.857 677.272 272.181 678.828 270.833 679.86 C 269.483 680.892 267.453 681.409 264.739 681.409 Z M 292.792 681.128 L 292.792 653.994 L 296.598 653.994 L 296.598 681.128 L 292.792 681.128 Z M 304.55 681.128 L 304.55 669.389 C 304.55 668.021 304.197 666.963 303.494 666.217 C 302.791 665.472 301.793 665.097 300.499 665.097 C 299.255 665.097 298.294 665.421 297.617 666.068 C 296.938 666.715 296.598 667.629 296.598 668.812 L 296.206 665.079 C 296.803 663.937 297.584 663.048 298.549 662.42 C 299.514 661.793 300.582 661.478 301.749 661.478 C 303.852 661.478 305.478 662.165 306.629 663.541 C 307.782 664.915 308.356 666.858 308.356 669.372 L 308.356 681.128 L 304.55 681.128 Z M 336.633 681.409 C 334.096 681.409 332.13 680.67 330.736 679.197 C 329.341 677.723 328.645 675.647 328.645 672.972 L 328.645 669.819 C 328.645 667.17 329.341 665.117 330.736 663.663 C 332.13 662.205 334.096 661.478 336.633 661.478 C 339.172 661.478 341.138 662.205 342.53 663.663 C 343.923 665.117 344.622 667.17 344.622 669.819 L 344.622 673.03 C 344.622 675.692 343.923 677.754 342.53 679.216 C 341.138 680.677 339.172 681.409 336.633 681.409 Z M 336.633 677.789 C 337.964 677.789 338.994 677.371 339.721 676.539 C 340.448 675.703 340.813 674.534 340.813 673.03 L 340.813 669.819 C 340.813 668.315 340.448 667.152 339.721 666.33 C 338.994 665.509 337.964 665.097 336.633 665.097 C 335.314 665.097 334.288 665.509 333.554 666.33 C 332.82 667.152 332.453 668.315 332.453 669.819 L 332.453 673.03 C 332.453 674.534 332.82 675.703 333.554 676.539 C 334.288 677.371 335.314 677.789 336.633 677.789 Z M 365.116 689.003 L 365.116 661.758 L 368.923 661.758 L 368.923 689.003 L 365.116 689.003 Z M 373.793 681.409 C 372.585 681.409 371.535 681.119 370.64 680.539 C 369.744 679.962 369.085 679.144 368.661 678.086 L 368.923 674.038 C 368.923 674.871 369.071 675.58 369.37 676.165 C 369.669 676.747 370.103 677.195 370.667 677.508 C 371.233 677.818 371.922 677.973 372.729 677.973 C 373.987 677.973 374.96 677.59 375.649 676.826 C 376.342 676.061 376.687 674.982 376.687 673.588 L 376.687 669.389 C 376.687 667.971 376.342 666.87 375.649 666.087 C 374.96 665.304 373.987 664.911 372.729 664.911 C 371.922 664.911 371.233 665.059 370.667 665.358 C 370.103 665.657 369.669 666.092 369.37 666.666 C 369.071 667.237 368.923 667.934 368.923 668.756 L 368.53 665.024 C 369.115 663.891 369.88 663.017 370.826 662.401 C 371.771 661.784 372.824 661.478 373.98 661.478 C 376.056 661.478 377.661 662.165 378.794 663.541 C 379.927 664.915 380.492 666.858 380.492 669.372 L 380.492 673.588 C 380.492 676.064 379.908 677.986 378.74 679.355 C 377.569 680.724 375.92 681.409 373.793 681.409 Z" style="fill: rgb(121, 121, 121); text-transform: lowercase; stroke-width: 1.061;" transform="matrix(0.9999999999999999, 0, 0, 0.9999999999999999, 0, 0)"/>
  <path style="fill: rgb(117, 112, 112); text-transform: lowercase; stroke-width: 1.061;" transform="matrix(0.9999999999999999, 0, 0, 0.9999999999999999, 0, 0)"/>
  <path d="M 425.736 681.128 L 425.736 677.826 L 435.198 665.21 C 435.743 664.489 436.171 663.741 436.475 662.97 C 436.779 662.2 436.931 661.472 436.931 660.787 L 436.931 660.751 C 436.931 659.669 436.614 658.828 435.98 658.232 C 435.346 657.634 434.442 657.335 433.274 657.335 C 432.179 657.335 431.285 657.66 430.597 658.315 C 429.907 658.969 429.486 659.892 429.338 661.086 L 429.338 661.105 L 425.399 661.105 L 425.399 661.086 C 425.736 658.747 426.587 656.933 427.955 655.646 C 429.324 654.358 431.086 653.715 433.237 653.715 C 435.676 653.715 437.559 654.331 438.89 655.561 C 440.222 656.793 440.888 658.534 440.888 660.787 L 440.888 660.806 C 440.888 661.763 440.689 662.769 440.29 663.82 C 439.893 664.871 439.34 665.875 438.629 666.833 L 430.775 677.508 L 441.039 677.508 L 441.039 681.128 L 425.736 681.128 Z M 468.698 681.409 C 466.11 681.409 464.173 680.714 462.885 679.329 C 461.598 677.94 460.954 676.064 460.954 673.701 L 460.954 661.367 C 460.954 658.965 461.608 657.079 462.913 655.711 C 464.22 654.343 466.148 653.659 468.698 653.659 C 471.261 653.659 473.193 654.339 474.492 655.704 C 475.793 657.064 476.443 658.953 476.443 661.367 L 476.443 673.701 C 476.443 676.102 475.793 677.986 474.492 679.355 C 473.193 680.724 471.261 681.409 468.698 681.409 Z M 468.698 677.789 C 470.093 677.789 471.096 677.424 471.712 676.696 C 472.329 675.967 472.637 674.969 472.637 673.701 L 472.637 661.367 C 472.637 660.083 472.329 659.083 471.712 658.362 C 471.096 657.639 470.093 657.279 468.698 657.279 C 467.304 657.279 466.3 657.639 465.685 658.362 C 465.069 659.083 464.761 660.083 464.761 661.367 L 464.761 673.701 C 464.761 674.969 465.069 675.967 465.685 676.696 C 466.3 677.424 467.304 677.789 468.698 677.789 Z M 496.703 681.128 L 496.703 677.826 L 506.168 665.21 C 506.713 664.489 507.141 663.741 507.445 662.97 C 507.749 662.2 507.902 661.472 507.902 660.787 L 507.902 660.751 C 507.902 659.669 507.585 658.828 506.95 658.232 C 506.317 657.634 505.413 657.335 504.244 657.335 C 503.149 657.335 502.257 657.66 501.567 658.315 C 500.877 658.969 500.456 659.892 500.308 661.086 L 500.308 661.105 L 496.369 661.105 L 496.369 661.086 C 496.705 658.747 497.558 656.933 498.926 655.646 C 500.294 654.358 502.056 653.715 504.206 653.715 C 506.646 653.715 508.53 654.331 509.86 655.561 C 511.192 656.793 511.858 658.534 511.858 660.787 L 511.858 660.806 C 511.858 661.763 511.66 662.769 511.26 663.82 C 510.864 664.871 510.31 665.875 509.601 666.833 L 501.744 677.508 L 512.008 677.508 L 512.008 681.128 L 496.703 681.128 Z M 530.45 676.967 L 530.45 673.665 L 539.556 654.014 L 543.474 654.014 L 534.592 673.439 L 547.898 673.439 L 547.898 676.967 L 530.45 676.967 Z M 542.151 681.148 L 542.151 665.172 L 545.864 665.172 L 545.864 681.148 L 542.151 681.148 Z" style="fill: rgb(233, 113, 50); text-transform: lowercase; stroke-width: 1.061;" transform="matrix(0.9999999999999999, 0, 0, 0.9999999999999999, 0, 0)"/>
  <path style="fill: rgb(51, 51, 51); stroke-width: 1.061;" transform="matrix(0.9999999999999999, 0, 0, 0.9999999999999999, 0, 0)"/>
  <path d="M 125.891 643.512 L 125.891 615.623 L 129.804 615.623 L 129.804 643.512 L 125.891 643.512 Z M 110.05 643.512 L 110.05 615.623 L 113.964 615.623 L 113.964 643.512 L 110.05 643.512 Z M 112.485 631.64 L 112.485 627.918 L 127.964 627.918 L 127.964 631.64 L 112.485 631.64 Z M 136.696 643.512 L 136.696 615.623 L 140.609 615.623 L 140.609 643.512 L 136.696 643.512 Z M 138.597 643.512 L 138.597 639.79 L 154.611 639.79 L 154.611 643.512 L 138.597 643.512 Z M 138.597 631.523 L 138.597 627.803 L 152.502 627.803 L 152.502 631.523 L 138.597 631.523 Z M 138.597 619.345 L 138.597 615.623 L 154.611 615.623 L 154.611 619.345 L 138.597 619.345 Z M 164.096 615.623 L 164.096 643.512 L 160.185 643.512 L 160.185 615.623 L 164.096 615.623 Z M 173.649 643.512 L 173.649 639.79 L 179.957 639.79 C 182.015 639.79 183.611 639.257 184.742 638.191 C 185.875 637.123 186.44 635.616 186.44 633.673 L 186.44 625.465 C 186.44 623.52 185.875 622.012 184.742 620.947 C 183.611 619.878 182.015 619.345 179.957 619.345 L 173.649 619.345 L 173.649 615.623 L 179.843 615.623 C 183.218 615.623 185.829 616.496 187.677 618.24 C 189.525 619.988 190.448 622.446 190.448 625.617 L 190.448 633.518 C 190.448 635.628 190.033 637.428 189.201 638.918 C 188.371 640.408 187.161 641.545 185.579 642.333 C 183.992 643.119 182.074 643.512 179.824 643.512 L 173.649 643.512 Z M 171 643.512 L 171 615.623 L 174.913 615.623 L 174.913 643.512 L 171 643.512 Z M 196.388 643.512 L 196.388 615.623 L 200.299 615.623 L 200.299 643.512 L 196.388 643.512 Z M 198.286 643.512 L 198.286 639.79 L 214.3 639.79 L 214.3 643.512 L 198.286 643.512 Z M 198.286 631.523 L 198.286 627.803 L 212.191 627.803 L 212.191 631.523 L 198.286 631.523 Z M 198.286 619.345 L 198.286 615.623 L 214.3 615.623 L 214.3 619.345 L 198.286 619.345 Z M 219.863 643.512 L 219.863 615.623 L 223.774 615.623 L 223.774 643.512 L 219.863 643.512 Z M 221.818 643.512 L 221.818 639.79 L 237.775 639.79 L 237.775 643.512 L 221.818 643.512 Z M 244.682 643.512 L 244.682 639.887 L 252.241 639.887 C 254.311 639.887 255.778 639.489 256.642 638.698 C 257.505 637.904 257.936 636.861 257.936 635.571 L 257.936 635.513 C 257.936 634.132 257.57 633.03 256.834 632.206 C 256.099 631.38 254.887 630.969 253.199 630.969 L 244.682 630.969 L 244.682 627.438 L 253.199 627.438 C 254.643 627.438 255.734 627.097 256.469 626.413 C 257.205 625.727 257.573 624.727 257.573 623.41 C 257.573 622.017 257.164 620.975 256.344 620.285 C 255.526 619.594 254.299 619.25 252.664 619.25 L 244.682 619.25 L 244.682 615.623 L 253.372 615.623 C 256.12 615.623 258.165 616.306 259.509 617.678 C 260.852 619.044 261.523 620.879 261.523 623.182 C 261.523 624.573 261.114 625.85 260.295 627.007 C 259.477 628.164 258.192 628.902 256.441 629.224 C 258.167 629.477 259.508 630.238 260.459 631.506 C 261.411 632.77 261.888 634.221 261.888 635.859 L 261.888 635.915 C 261.888 638.193 261.152 640.028 259.684 641.421 C 258.212 642.814 256.217 643.512 253.697 643.512 L 244.682 643.512 Z M 242.381 643.512 L 242.381 615.623 L 246.275 615.623 L 246.275 643.512 L 242.381 643.512 Z M 267.741 643.512 L 267.741 615.623 L 271.655 615.623 L 271.655 643.512 L 267.741 643.512 Z M 269.641 643.512 L 269.641 639.79 L 285.656 639.79 L 285.656 643.512 L 269.641 643.512 Z M 269.641 631.523 L 269.641 627.803 L 283.546 627.803 L 283.546 631.523 L 269.641 631.523 Z M 269.641 619.345 L 269.641 615.623 L 285.656 615.623 L 285.656 619.345 L 269.641 619.345 Z M 292.924 631.717 L 292.924 627.994 L 302.437 627.994 C 303.575 627.994 304.489 627.598 305.18 626.807 C 305.871 626.012 306.216 624.963 306.216 623.661 C 306.216 622.354 305.871 621.305 305.18 620.515 C 304.489 619.722 303.575 619.325 302.437 619.325 L 292.924 619.325 L 292.924 615.605 L 302.283 615.605 C 303.907 615.605 305.326 615.939 306.542 616.613 C 307.757 617.283 308.7 618.219 309.371 619.422 C 310.041 620.624 310.377 622.036 310.377 623.661 C 310.377 625.271 310.039 626.681 309.362 627.889 C 308.683 629.098 307.741 630.038 306.533 630.709 C 305.325 631.38 303.907 631.717 302.283 631.717 L 292.924 631.717 Z M 291.217 643.512 L 291.217 615.605 L 295.129 615.605 L 295.129 643.512 L 291.217 643.512 Z M 306.907 643.512 L 300.519 630.852 L 304.414 629.969 L 311.548 643.512 L 306.907 643.512 Z M 325.457 628.495 L 335.125 628.495 L 335.125 633.366 C 335.125 635.461 334.718 637.293 333.906 638.859 C 333.095 640.428 331.96 641.64 330.501 642.505 C 329.044 643.366 327.33 643.8 325.362 643.8 C 323.38 643.8 321.648 643.392 320.165 642.582 C 318.681 641.769 317.53 640.626 316.71 639.147 C 315.893 637.67 315.483 635.946 315.483 633.98 L 315.483 625.751 C 315.483 623.653 315.889 621.824 316.701 620.266 C 317.514 618.705 318.648 617.493 320.106 616.63 C 321.563 615.765 323.277 615.336 325.246 615.336 C 326.871 615.336 328.351 615.68 329.687 616.373 C 331.024 617.062 332.145 618.028 333.052 619.268 C 333.96 620.508 334.574 621.959 334.894 623.622 L 330.655 623.622 C 330.297 622.177 329.601 621.072 328.566 620.304 C 327.529 619.536 326.423 619.153 325.246 619.153 C 323.508 619.153 322.114 619.759 321.064 620.966 C 320.017 622.174 319.493 623.767 319.493 625.751 L 319.493 633.98 C 319.493 635.794 320.029 637.249 321.103 638.343 C 322.177 639.435 323.595 639.984 325.362 639.984 C 327.099 639.984 328.493 639.407 329.544 638.257 C 330.59 637.107 331.115 635.502 331.115 633.441 L 331.115 632.234 L 325.457 632.234 L 325.457 628.495 Z M 349.312 643.512 L 359.591 615.623 L 362.928 615.623 L 373.209 643.512 L 368.988 643.512 L 361.259 621.014 L 353.531 643.512 L 349.312 643.512 Z M 354.048 637.394 L 354.048 633.673 L 368.72 633.673 L 368.72 637.394 L 354.048 637.394 Z M 379.448 632.695 L 379.448 628.974 L 388.368 628.974 C 389.648 628.974 390.673 628.532 391.446 627.65 C 392.22 626.767 392.607 625.609 392.607 624.178 C 392.607 622.719 392.22 621.548 391.446 620.669 C 390.673 619.785 389.648 619.345 388.368 619.345 L 379.448 619.345 L 379.448 615.623 L 388.234 615.623 C 389.921 615.623 391.392 615.979 392.644 616.687 C 393.898 617.398 394.872 618.393 395.571 619.67 C 396.266 620.948 396.615 622.451 396.615 624.178 C 396.615 625.893 396.266 627.388 395.571 628.667 C 394.872 629.946 393.898 630.936 392.644 631.64 C 391.392 632.342 389.921 632.695 388.234 632.695 L 379.448 632.695 Z M 377.434 643.512 L 377.434 615.623 L 381.348 615.623 L 381.348 643.512 L 377.434 643.512 Z M 403.507 632.695 L 403.507 628.974 L 412.426 628.974 C 413.706 628.974 414.731 628.532 415.503 627.65 C 416.278 626.767 416.665 625.609 416.665 624.178 C 416.665 622.719 416.278 621.548 415.503 620.669 C 414.731 619.785 413.706 619.345 412.426 619.345 L 403.507 619.345 L 403.507 615.623 L 412.292 615.623 C 413.98 615.623 415.45 615.979 416.704 616.687 C 417.958 617.398 418.932 618.393 419.628 619.67 C 420.326 620.948 420.673 622.451 420.673 624.178 C 420.673 625.893 420.326 627.388 419.628 628.667 C 418.932 629.946 417.958 630.936 416.704 631.64 C 415.45 632.342 413.98 632.695 412.292 632.695 L 403.507 632.695 Z M 401.495 643.512 L 401.495 615.623 L 405.407 615.623 L 405.407 643.512 L 401.495 643.512 Z M 425.567 643.512 L 425.567 615.623 L 429.479 615.623 L 429.479 643.512 L 425.567 643.512 Z M 427.522 643.512 L 427.522 639.79 L 443.48 639.79 L 443.48 643.512 L 427.522 643.512 Z M 452 615.623 L 452 643.512 L 448.086 643.512 L 448.086 615.623 L 452 615.623 Z M 458.901 643.512 L 458.901 615.623 L 462.815 615.623 L 462.815 643.512 L 458.901 643.512 Z M 460.802 643.512 L 460.802 639.79 L 476.816 639.79 L 476.816 643.512 L 460.802 643.512 Z M 460.802 631.523 L 460.802 627.803 L 474.707 627.803 L 474.707 631.523 L 460.802 631.523 Z M 460.802 619.345 L 460.802 615.623 L 476.816 615.623 L 476.816 619.345 L 460.802 619.345 Z M 485.024 643.512 L 485.024 639.79 L 491.334 639.79 C 493.392 639.79 494.988 639.257 496.121 638.191 C 497.252 637.123 497.817 635.616 497.817 633.673 L 497.817 625.465 C 497.817 623.52 497.252 622.012 496.121 620.947 C 494.988 619.878 493.392 619.345 491.334 619.345 L 485.024 619.345 L 485.024 615.623 L 491.22 615.623 C 494.595 615.623 497.207 616.496 499.053 618.24 C 500.902 619.988 501.827 622.446 501.827 625.617 L 501.827 633.518 C 501.827 635.628 501.41 637.428 500.578 638.918 C 499.748 640.408 498.54 641.545 496.954 642.333 C 495.37 643.119 493.451 643.512 491.199 643.512 L 485.024 643.512 Z M 482.377 643.512 L 482.377 615.623 L 486.289 615.623 L 486.289 643.512 L 482.377 643.512 Z M 516.025 643.512 L 526.307 615.623 L 529.644 615.623 L 539.924 643.512 L 535.705 643.512 L 527.976 621.014 L 520.247 643.512 L 516.025 643.512 Z M 520.764 637.394 L 520.764 633.673 L 535.437 633.673 L 535.437 637.394 L 520.764 637.394 Z M 548.05 615.623 L 548.05 643.512 L 544.137 643.512 L 544.137 615.623 L 548.05 615.623 Z" style="fill: rgb(51, 51, 51); text-transform: uppercase; stroke-width: 1.061;" transform="matrix(0.9999999999999999, 0, 0, 0.9999999999999999, 0, 0)"/>
</svg>