<?xml version="1.0" encoding="utf-8"?>
<svg viewBox="0 0 1616 888" width="1616" height="888" xmlns="http://www.w3.org/2000/svg">
  <rect x="79.298" y="199.388" width="506.358" height="544.27" style="stroke-width: 1.712; stroke: rgba(0, 0, 0, 0); fill: rgb(255, 255, 255);" transform="matrix(0.9999989867210387, 0.00101500004529953, 0, 1.0000009536743164, -79.29776119139427, -24.253172282176763)"/>
  <g transform="matrix(0.609875023365, 0, 0, 0.609875023365, -1923.620606832041, -740.689153977249)" style="transform-origin: 2174px 1159px;">
    <rect x="1809.953" y="857.255" width="107" height="294" fill="#E97132"/>
    <rect x="1987.953" y="857.255" width="106" height="294" fill="#E97132"/>
    <rect x="1898.953" y="962.255" width="107" height="189" fill="#E97132"/>
    <rect x="1987.953" y="1176" width="106" height="293" fill="#E97132"/>
    <rect x="1809.953" y="1176" width="107" height="293" fill="#E97132"/>
    <rect x="1898.953" y="1176" width="107" height="189" fill="#E97132"/>
    <rect x="2295.698" y="1176" width="106" height="293" fill="#E97132"/>
    <rect x="2118.698" y="1176" width="106" height="293" fill="#E97132"/>
    <rect x="2206.698" y="1176" width="107" height="189" fill="#E97132"/>
    <rect x="2425.44" y="1176" width="106" height="293" fill="#E97132"/>
  </g>
  <path style="fill: rgb(51, 51, 51); stroke-width: 1.052;" transform="matrix(0.9999999999999999, 0, 0, 0.9999999999999999, 0, 0)"/>
  <path style="fill: rgb(51, 51, 51); stroke-width: 1.052;" transform="matrix(0.9999999999999999, 0, 0, 0.9999999999999999, 0, 0)"/>
  <path d="M 35.358 681.128 L 29.386 661.758 L 33.362 661.758 L 36.796 675.584 L 41.63 661.758 L 44.279 661.758 L 49.113 675.584 L 52.546 661.758 L 56.52 661.758 L 50.549 681.128 L 47.675 681.128 L 42.955 667.747 L 38.233 681.128 L 35.358 681.128 Z M 82.751 681.409 C 80.214 681.409 78.247 680.67 76.852 679.197 C 75.46 677.723 74.765 675.647 74.765 672.972 L 74.765 669.819 C 74.765 667.17 75.46 665.117 76.852 663.663 C 78.247 662.205 80.214 661.478 82.751 661.478 C 85.29 661.478 87.254 662.205 88.648 663.663 C 90.042 665.117 90.739 667.17 90.739 669.819 L 90.739 673.03 C 90.739 675.692 90.042 677.754 88.648 679.216 C 87.254 680.677 85.29 681.409 82.751 681.409 Z M 82.751 677.789 C 84.082 677.789 85.113 677.371 85.839 676.539 C 86.567 675.703 86.932 674.534 86.932 673.03 L 86.932 669.819 C 86.932 668.315 86.567 667.152 85.839 666.33 C 85.113 665.509 84.082 665.097 82.751 665.097 C 81.432 665.097 80.407 665.509 79.673 666.33 C 78.94 667.152 78.571 668.315 78.571 669.819 L 78.571 673.03 C 78.571 674.534 78.94 675.703 79.673 676.539 C 80.407 677.371 81.432 677.789 82.751 677.789 Z M 111.221 681.128 L 111.221 661.758 L 115.028 661.758 L 115.028 681.128 L 111.221 681.128 Z M 121.877 666.347 C 121.539 665.938 121.117 665.626 120.607 665.416 C 120.097 665.203 119.506 665.097 118.833 665.097 C 117.628 665.097 116.692 665.43 116.026 666.098 C 115.36 666.761 115.028 667.684 115.028 668.868 L 114.636 665.137 C 115.22 663.99 115.986 663.095 116.94 662.447 C 117.893 661.799 118.939 661.478 120.084 661.478 C 120.968 661.478 121.767 661.604 122.482 661.861 C 123.198 662.116 123.824 662.492 124.359 662.99 L 121.877 666.347 Z M 144.005 678.293 L 144.246 673.776 L 154.213 661.758 L 158.69 661.758 L 144.005 678.293 Z M 142.605 681.128 L 142.605 653.994 L 146.411 653.994 L 146.411 681.128 L 142.605 681.128 Z M 155.5 681.128 L 148.744 669.95 L 151.189 667.413 L 159.642 681.128 L 155.5 681.128 Z M 184.739 681.409 C 183.024 681.409 181.465 681.154 180.064 680.652 C 178.665 680.147 177.412 679.393 176.305 678.385 L 178.563 675.605 C 179.621 676.401 180.662 676.998 181.689 677.395 C 182.717 677.795 183.732 677.993 184.739 677.993 C 186.244 677.993 187.374 677.76 188.127 677.293 C 188.879 676.826 189.256 676.127 189.256 675.195 C 189.256 674.472 189.004 673.963 188.501 673.665 C 187.997 673.364 187.337 673.169 186.522 673.075 C 185.708 672.983 184.832 672.905 183.901 672.842 C 183.115 672.779 182.338 672.682 181.568 672.554 C 180.796 672.42 180.093 672.187 179.458 671.845 C 178.825 671.501 178.317 670.993 177.936 670.322 C 177.557 669.651 177.367 668.749 177.367 667.616 C 177.367 665.563 177.996 664.028 179.254 663.009 C 180.51 661.987 182.382 661.478 184.87 661.478 C 186.389 661.478 187.799 661.683 189.106 662.093 C 190.414 662.503 191.638 663.131 192.783 663.979 L 190.487 666.759 C 189.517 666.137 188.563 665.67 187.622 665.358 C 186.683 665.046 185.765 664.893 184.87 664.893 C 183.576 664.893 182.607 665.114 181.959 665.556 C 181.311 665.997 180.988 666.659 180.988 667.543 C 180.988 668.126 181.213 668.547 181.66 668.803 C 182.108 669.057 182.7 669.221 183.434 669.296 C 184.168 669.371 184.958 669.44 185.804 669.502 C 186.611 669.551 187.43 669.642 188.258 669.773 C 189.084 669.903 189.846 670.155 190.543 670.53 C 191.241 670.902 191.799 671.455 192.223 672.188 C 192.645 672.922 192.857 673.925 192.857 675.195 C 192.857 677.272 192.181 678.828 190.833 679.86 C 189.483 680.892 187.453 681.409 184.739 681.409 Z M 212.792 681.128 L 212.792 653.994 L 216.598 653.994 L 216.598 681.128 L 212.792 681.128 Z M 224.55 681.128 L 224.55 669.389 C 224.55 668.021 224.197 666.963 223.494 666.217 C 222.791 665.472 221.793 665.097 220.499 665.097 C 219.255 665.097 218.294 665.421 217.617 666.068 C 216.938 666.715 216.598 667.629 216.598 668.812 L 216.206 665.079 C 216.803 663.937 217.584 663.048 218.549 662.42 C 219.514 661.793 220.582 661.478 221.749 661.478 C 223.852 661.478 225.478 662.165 226.629 663.541 C 227.782 664.915 228.356 666.858 228.356 669.372 L 228.356 681.128 L 224.55 681.128 Z M 256.633 681.409 C 254.096 681.409 252.13 680.67 250.736 679.197 C 249.341 677.723 248.645 675.647 248.645 672.972 L 248.645 669.819 C 248.645 667.17 249.341 665.117 250.736 663.663 C 252.13 662.205 254.096 661.478 256.633 661.478 C 259.172 661.478 261.138 662.205 262.53 663.663 C 263.923 665.117 264.622 667.17 264.622 669.819 L 264.622 673.03 C 264.622 675.692 263.923 677.754 262.53 679.216 C 261.138 680.677 259.172 681.409 256.633 681.409 Z M 256.633 677.789 C 257.964 677.789 258.994 677.371 259.721 676.539 C 260.448 675.703 260.813 674.534 260.813 673.03 L 260.813 669.819 C 260.813 668.315 260.448 667.152 259.721 666.33 C 258.994 665.509 257.964 665.097 256.633 665.097 C 255.314 665.097 254.288 665.509 253.554 666.33 C 252.82 667.152 252.453 668.315 252.453 669.819 L 252.453 673.03 C 252.453 674.534 252.82 675.703 253.554 676.539 C 254.288 677.371 255.314 677.789 256.633 677.789 Z M 285.116 689.003 L 285.116 661.758 L 288.923 661.758 L 288.923 689.003 L 285.116 689.003 Z M 293.793 681.409 C 292.585 681.409 291.535 681.119 290.64 680.539 C 289.744 679.962 289.085 679.144 288.661 678.086 L 288.923 674.038 C 288.923 674.871 289.071 675.58 289.37 676.165 C 289.669 676.747 290.103 677.195 290.667 677.508 C 291.233 677.818 291.922 677.973 292.729 677.973 C 293.987 677.973 294.96 677.59 295.649 676.826 C 296.342 676.061 296.687 674.982 296.687 673.588 L 296.687 669.389 C 296.687 667.971 296.342 666.87 295.649 666.087 C 294.96 665.304 293.987 664.911 292.729 664.911 C 291.922 664.911 291.233 665.059 290.667 665.358 C 290.103 665.657 289.669 666.092 289.37 666.666 C 289.071 667.237 288.923 667.934 288.923 668.756 L 288.53 665.024 C 289.115 663.891 289.88 663.017 290.826 662.401 C 291.771 661.784 292.824 661.478 293.98 661.478 C 296.056 661.478 297.661 662.165 298.794 663.541 C 299.927 664.915 300.492 666.858 300.492 669.372 L 300.492 673.588 C 300.492 676.064 299.908 677.986 298.74 679.355 C 297.569 680.724 295.92 681.409 293.793 681.409 Z" style="fill: rgb(121, 121, 121); text-transform: lowercase; stroke-width: 1.061;" transform="matrix(0.9999999999999999, 0, 0, 0.9999999999999999, 0, 0)"/>
  <path style="fill: rgb(117, 112, 112); text-transform: lowercase; stroke-width: 1.061;" transform="matrix(0.9999999999999999, 0, 0, 0.9999999999999999, 0, 0)"/>
  <path d="M 345.736 681.128 L 345.736 677.826 L 355.198 665.21 C 355.743 664.489 356.171 663.741 356.475 662.97 C 356.779 662.2 356.931 661.472 356.931 660.787 L 356.931 660.751 C 356.931 659.669 356.614 658.828 355.98 658.232 C 355.346 657.634 354.442 657.335 353.274 657.335 C 352.179 657.335 351.285 657.66 350.597 658.315 C 349.907 658.969 349.486 659.892 349.338 661.086 L 349.338 661.105 L 345.399 661.105 L 345.399 661.086 C 345.736 658.747 346.587 656.933 347.955 655.646 C 349.324 654.358 351.086 653.715 353.237 653.715 C 355.676 653.715 357.559 654.331 358.89 655.561 C 360.222 656.793 360.888 658.534 360.888 660.787 L 360.888 660.806 C 360.888 661.763 360.689 662.769 360.29 663.82 C 359.893 664.871 359.34 665.875 358.629 666.833 L 350.775 677.508 L 361.039 677.508 L 361.039 681.128 L 345.736 681.128 Z M 388.698 681.409 C 386.11 681.409 384.173 680.714 382.885 679.329 C 381.598 677.94 380.954 676.064 380.954 673.701 L 380.954 661.367 C 380.954 658.965 381.608 657.079 382.913 655.711 C 384.22 654.343 386.148 653.659 388.698 653.659 C 391.261 653.659 393.193 654.339 394.492 655.704 C 395.793 657.064 396.443 658.953 396.443 661.367 L 396.443 673.701 C 396.443 676.102 395.793 677.986 394.492 679.355 C 393.193 680.724 391.261 681.409 388.698 681.409 Z M 388.698 677.789 C 390.093 677.789 391.096 677.424 391.712 676.696 C 392.329 675.967 392.637 674.969 392.637 673.701 L 392.637 661.367 C 392.637 660.083 392.329 659.083 391.712 658.362 C 391.096 657.639 390.093 657.279 388.698 657.279 C 387.304 657.279 386.3 657.639 385.685 658.362 C 385.069 659.083 384.761 660.083 384.761 661.367 L 384.761 673.701 C 384.761 674.969 385.069 675.967 385.685 676.696 C 386.3 677.424 387.304 677.789 388.698 677.789 Z M 416.703 681.128 L 416.703 677.826 L 426.168 665.21 C 426.713 664.489 427.141 663.741 427.445 662.97 C 427.749 662.2 427.902 661.472 427.902 660.787 L 427.902 660.751 C 427.902 659.669 427.585 658.828 426.95 658.232 C 426.317 657.634 425.413 657.335 424.244 657.335 C 423.149 657.335 422.257 657.66 421.567 658.315 C 420.877 658.969 420.456 659.892 420.308 661.086 L 420.308 661.105 L 416.369 661.105 L 416.369 661.086 C 416.705 658.747 417.558 656.933 418.926 655.646 C 420.294 654.358 422.056 653.715 424.206 653.715 C 426.646 653.715 428.53 654.331 429.86 655.561 C 431.192 656.793 431.858 658.534 431.858 660.787 L 431.858 660.806 C 431.858 661.763 431.66 662.769 431.26 663.82 C 430.864 664.871 430.31 665.875 429.601 666.833 L 421.744 677.508 L 432.008 677.508 L 432.008 681.128 L 416.703 681.128 Z M 450.45 676.967 L 450.45 673.665 L 459.556 654.014 L 463.474 654.014 L 454.592 673.439 L 467.898 673.439 L 467.898 676.967 L 450.45 676.967 Z M 462.151 681.148 L 462.151 665.172 L 465.864 665.172 L 465.864 681.148 L 462.151 681.148 Z" style="fill: rgb(233, 113, 50); text-transform: lowercase; stroke-width: 1.061;" transform="matrix(0.9999999999999999, 0, 0, 0.9999999999999999, 0, 0)"/>
  <path style="fill: rgb(51, 51, 51); stroke-width: 1.061;" transform="matrix(0.9999999999999999, 0, 0, 0.9999999999999999, 0, 0)"/>
  <path d="M 45.891 643.512 L 45.891 615.623 L 49.804 615.623 L 49.804 643.512 L 45.891 643.512 Z M 30.05 643.512 L 30.05 615.623 L 33.964 615.623 L 33.964 643.512 L 30.05 643.512 Z M 32.485 631.64 L 32.485 627.918 L 47.964 627.918 L 47.964 631.64 L 32.485 631.64 Z M 56.696 643.512 L 56.696 615.623 L 60.609 615.623 L 60.609 643.512 L 56.696 643.512 Z M 58.597 643.512 L 58.597 639.79 L 74.611 639.79 L 74.611 643.512 L 58.597 643.512 Z M 58.597 631.523 L 58.597 627.803 L 72.502 627.803 L 72.502 631.523 L 58.597 631.523 Z M 58.597 619.345 L 58.597 615.623 L 74.611 615.623 L 74.611 619.345 L 58.597 619.345 Z M 84.096 615.623 L 84.096 643.512 L 80.185 643.512 L 80.185 615.623 L 84.096 615.623 Z M 93.649 643.512 L 93.649 639.79 L 99.957 639.79 C 102.015 639.79 103.611 639.257 104.742 638.191 C 105.875 637.123 106.44 635.616 106.44 633.673 L 106.44 625.465 C 106.44 623.52 105.875 622.012 104.742 620.947 C 103.611 619.878 102.015 619.345 99.957 619.345 L 93.649 619.345 L 93.649 615.623 L 99.843 615.623 C 103.218 615.623 105.829 616.496 107.677 618.24 C 109.525 619.988 110.448 622.446 110.448 625.617 L 110.448 633.518 C 110.448 635.628 110.033 637.428 109.201 638.918 C 108.371 640.408 107.161 641.545 105.579 642.333 C 103.992 643.119 102.074 643.512 99.824 643.512 L 93.649 643.512 Z M 91 643.512 L 91 615.623 L 94.913 615.623 L 94.913 643.512 L 91 643.512 Z M 116.388 643.512 L 116.388 615.623 L 120.299 615.623 L 120.299 643.512 L 116.388 643.512 Z M 118.286 643.512 L 118.286 639.79 L 134.3 639.79 L 134.3 643.512 L 118.286 643.512 Z M 118.286 631.523 L 118.286 627.803 L 132.191 627.803 L 132.191 631.523 L 118.286 631.523 Z M 118.286 619.345 L 118.286 615.623 L 134.3 615.623 L 134.3 619.345 L 118.286 619.345 Z M 139.863 643.512 L 139.863 615.623 L 143.774 615.623 L 143.774 643.512 L 139.863 643.512 Z M 141.818 643.512 L 141.818 639.79 L 157.775 639.79 L 157.775 643.512 L 141.818 643.512 Z M 164.682 643.512 L 164.682 639.887 L 172.241 639.887 C 174.311 639.887 175.778 639.489 176.642 638.698 C 177.505 637.904 177.936 636.861 177.936 635.571 L 177.936 635.513 C 177.936 634.132 177.57 633.03 176.834 632.206 C 176.099 631.38 174.887 630.969 173.199 630.969 L 164.682 630.969 L 164.682 627.438 L 173.199 627.438 C 174.643 627.438 175.734 627.097 176.469 626.413 C 177.205 625.727 177.573 624.727 177.573 623.41 C 177.573 622.017 177.164 620.975 176.344 620.285 C 175.526 619.594 174.299 619.25 172.664 619.25 L 164.682 619.25 L 164.682 615.623 L 173.372 615.623 C 176.12 615.623 178.165 616.306 179.509 617.678 C 180.852 619.044 181.523 620.879 181.523 623.182 C 181.523 624.573 181.114 625.85 180.295 627.007 C 179.477 628.164 178.192 628.902 176.441 629.224 C 178.167 629.477 179.508 630.238 180.459 631.506 C 181.411 632.77 181.888 634.221 181.888 635.859 L 181.888 635.915 C 181.888 638.193 181.152 640.028 179.684 641.421 C 178.212 642.814 176.217 643.512 173.697 643.512 L 164.682 643.512 Z M 162.381 643.512 L 162.381 615.623 L 166.275 615.623 L 166.275 643.512 L 162.381 643.512 Z M 187.741 643.512 L 187.741 615.623 L 191.655 615.623 L 191.655 643.512 L 187.741 643.512 Z M 189.641 643.512 L 189.641 639.79 L 205.656 639.79 L 205.656 643.512 L 189.641 643.512 Z M 189.641 631.523 L 189.641 627.803 L 203.546 627.803 L 203.546 631.523 L 189.641 631.523 Z M 189.641 619.345 L 189.641 615.623 L 205.656 615.623 L 205.656 619.345 L 189.641 619.345 Z M 212.924 631.717 L 212.924 627.994 L 222.437 627.994 C 223.575 627.994 224.489 627.598 225.18 626.807 C 225.871 626.012 226.216 624.963 226.216 623.661 C 226.216 622.354 225.871 621.305 225.18 620.515 C 224.489 619.722 223.575 619.325 222.437 619.325 L 212.924 619.325 L 212.924 615.605 L 222.283 615.605 C 223.907 615.605 225.326 615.939 226.542 616.613 C 227.757 617.283 228.7 618.219 229.371 619.422 C 230.041 620.624 230.377 622.036 230.377 623.661 C 230.377 625.271 230.039 626.681 229.362 627.889 C 228.683 629.098 227.741 630.038 226.533 630.709 C 225.325 631.38 223.907 631.717 222.283 631.717 L 212.924 631.717 Z M 211.217 643.512 L 211.217 615.605 L 215.129 615.605 L 215.129 643.512 L 211.217 643.512 Z M 226.907 643.512 L 220.519 630.852 L 224.414 629.969 L 231.548 643.512 L 226.907 643.512 Z M 245.457 628.495 L 255.125 628.495 L 255.125 633.366 C 255.125 635.461 254.718 637.293 253.906 638.859 C 253.095 640.428 251.96 641.64 250.501 642.505 C 249.044 643.366 247.33 643.8 245.362 643.8 C 243.38 643.8 241.648 643.392 240.165 642.582 C 238.681 641.769 237.53 640.626 236.71 639.147 C 235.893 637.67 235.483 635.946 235.483 633.98 L 235.483 625.751 C 235.483 623.653 235.889 621.824 236.701 620.266 C 237.514 618.705 238.648 617.493 240.106 616.63 C 241.563 615.765 243.277 615.336 245.246 615.336 C 246.871 615.336 248.351 615.68 249.687 616.373 C 251.024 617.062 252.145 618.028 253.052 619.268 C 253.96 620.508 254.574 621.959 254.894 623.622 L 250.655 623.622 C 250.297 622.177 249.601 621.072 248.566 620.304 C 247.529 619.536 246.423 619.153 245.246 619.153 C 243.508 619.153 242.114 619.759 241.064 620.966 C 240.017 622.174 239.493 623.767 239.493 625.751 L 239.493 633.98 C 239.493 635.794 240.029 637.249 241.103 638.343 C 242.177 639.435 243.595 639.984 245.362 639.984 C 247.099 639.984 248.493 639.407 249.544 638.257 C 250.59 637.107 251.115 635.502 251.115 633.441 L 251.115 632.234 L 245.457 632.234 L 245.457 628.495 Z M 269.312 643.512 L 279.591 615.623 L 282.928 615.623 L 293.209 643.512 L 288.988 643.512 L 281.259 621.014 L 273.531 643.512 L 269.312 643.512 Z M 274.048 637.394 L 274.048 633.673 L 288.72 633.673 L 288.72 637.394 L 274.048 637.394 Z M 299.448 632.695 L 299.448 628.974 L 308.368 628.974 C 309.648 628.974 310.673 628.532 311.446 627.65 C 312.22 626.767 312.607 625.609 312.607 624.178 C 312.607 622.719 312.22 621.548 311.446 620.669 C 310.673 619.785 309.648 619.345 308.368 619.345 L 299.448 619.345 L 299.448 615.623 L 308.234 615.623 C 309.921 615.623 311.392 615.979 312.644 616.687 C 313.898 617.398 314.872 618.393 315.571 619.67 C 316.266 620.948 316.615 622.451 316.615 624.178 C 316.615 625.893 316.266 627.388 315.571 628.667 C 314.872 629.946 313.898 630.936 312.644 631.64 C 311.392 632.342 309.921 632.695 308.234 632.695 L 299.448 632.695 Z M 297.434 643.512 L 297.434 615.623 L 301.348 615.623 L 301.348 643.512 L 297.434 643.512 Z M 323.507 632.695 L 323.507 628.974 L 332.426 628.974 C 333.706 628.974 334.731 628.532 335.503 627.65 C 336.278 626.767 336.665 625.609 336.665 624.178 C 336.665 622.719 336.278 621.548 335.503 620.669 C 334.731 619.785 333.706 619.345 332.426 619.345 L 323.507 619.345 L 323.507 615.623 L 332.292 615.623 C 333.98 615.623 335.45 615.979 336.704 616.687 C 337.958 617.398 338.932 618.393 339.628 619.67 C 340.326 620.948 340.673 622.451 340.673 624.178 C 340.673 625.893 340.326 627.388 339.628 628.667 C 338.932 629.946 337.958 630.936 336.704 631.64 C 335.45 632.342 333.98 632.695 332.292 632.695 L 323.507 632.695 Z M 321.495 643.512 L 321.495 615.623 L 325.407 615.623 L 325.407 643.512 L 321.495 643.512 Z M 345.567 643.512 L 345.567 615.623 L 349.479 615.623 L 349.479 643.512 L 345.567 643.512 Z M 347.522 643.512 L 347.522 639.79 L 363.48 639.79 L 363.48 643.512 L 347.522 643.512 Z M 372 615.623 L 372 643.512 L 368.086 643.512 L 368.086 615.623 L 372 615.623 Z M 378.901 643.512 L 378.901 615.623 L 382.815 615.623 L 382.815 643.512 L 378.901 643.512 Z M 380.802 643.512 L 380.802 639.79 L 396.816 639.79 L 396.816 643.512 L 380.802 643.512 Z M 380.802 631.523 L 380.802 627.803 L 394.707 627.803 L 394.707 631.523 L 380.802 631.523 Z M 380.802 619.345 L 380.802 615.623 L 396.816 615.623 L 396.816 619.345 L 380.802 619.345 Z M 405.024 643.512 L 405.024 639.79 L 411.334 639.79 C 413.392 639.79 414.988 639.257 416.121 638.191 C 417.252 637.123 417.817 635.616 417.817 633.673 L 417.817 625.465 C 417.817 623.52 417.252 622.012 416.121 620.947 C 414.988 619.878 413.392 619.345 411.334 619.345 L 405.024 619.345 L 405.024 615.623 L 411.22 615.623 C 414.595 615.623 417.207 616.496 419.053 618.24 C 420.902 619.988 421.827 622.446 421.827 625.617 L 421.827 633.518 C 421.827 635.628 421.41 637.428 420.578 638.918 C 419.748 640.408 418.54 641.545 416.954 642.333 C 415.37 643.119 413.451 643.512 411.199 643.512 L 405.024 643.512 Z M 402.377 643.512 L 402.377 615.623 L 406.289 615.623 L 406.289 643.512 L 402.377 643.512 Z M 436.025 643.512 L 446.307 615.623 L 449.644 615.623 L 459.924 643.512 L 455.705 643.512 L 447.976 621.014 L 440.247 643.512 L 436.025 643.512 Z M 440.764 637.394 L 440.764 633.673 L 455.437 633.673 L 455.437 637.394 L 440.764 637.394 Z M 468.05 615.623 L 468.05 643.512 L 464.137 643.512 L 464.137 615.623 L 468.05 615.623 Z" style="fill: rgb(51, 51, 51); text-transform: uppercase; stroke-width: 1.061;" transform="matrix(0.9999999999999999, 0, 0, 0.9999999999999999, 0, 0)"/>
</svg>